<mxfile host="65bd71144e">
    <diagram id="3LDhvi7xAX8ye1fzwXZL" name="Page-1">
        <mxGraphModel dx="890" dy="736" grid="1" gridSize="10" guides="1" tooltips="1" connect="1" arrows="1" fold="1" page="1" pageScale="1" pageWidth="850" pageHeight="1100" math="0" shadow="0">
            <root>
                <mxCell id="0"/>
                <mxCell id="1" parent="0"/>
                <mxCell id="51" value="" style="shape=stencil(lZjJctswDIafRlcMSHA9p+l7ZCZO7alrZxyny9uXHJWyCEZ/6puifBCxA/QkD2/7p9fdZPntejl/3/06PF/3k3yZrD2c9rvL4VqeJnmc5OHlfNl9u5zfT8/z369PlaxPP84/6xd+z3I5U7JVyvKf+Q23F19n/ng4rXlH2XS8I+e3+VT43PHGUsjbAtGR6QWspZS2BUKgwJ2AMEnYFvCRJPUCmRwQcJFc7yOXSYDREin1NvhMLNsCtnwvdgIhUmYgYMn4TiB68kAlE8j0NiQDA20Mce+lFCgBL0Udt8wUDPAq+V6hLGSQj5pDFt5RhLzWx1MA+gsl1rwFDnI6ZDmQgJAJ5dDzJQ/dPfaWLIX2hqx5ZK9tp6/4hDJIF37hc0T8P22XwmcmBg7iwUHlAKAQt4RfGwACxmRlcBDkeXCQAIMLPzjIgALglu4Ln2AASlfLmg8gIZhi1Dxqc6al+4pH9hqKfA9fCjIM+gB77RDf1Dr9Bp8G/VE+2A/yjaH+ecwHWMDa/5k8mHyW3MBHyPNYL0Af007/34I0emR8UvGl3yfNJ8jL8H20GhRthw6HEnqxbl2Q+PtDwWRYYPfxpcBUwEJLwa0Espq30N5oBh4kRGmgii8TDzQs07y9msAWbGYyxKvMKJAPnqL6Prct5+NdtLW/1Ybi0ErjKPQdpexAgipsyOiyZRnUUqIe2mWPc8BkCXq19Ak2CefbTFx20QQ3Re+1SmXbRVUffJtaywKe4Qlx2DzqbgFsSKJXP2NxoEVnnsBJWQdRfwDDxK6DKCoehbkOoqB4xvqkpHmkT+lTrHkQgTqItL2M9C+DSDQPsrQOIqP9AxpL7fvaP6gR3Ra9G4/uV6vBdRNAZVYPyIpHq0TltYMiduh9t+hP+fJwu7K/HI7H+ca//r++4pdX888D8vgX);lineShape=1;fontSize=16;" vertex="1" parent="1">
                    <mxGeometry x="215.36650347195678" y="183.59030237271247" width="151.3351383354684" height="273.7640859569407" as="geometry"/>
                </mxCell>
                <mxCell id="52" value="" style="shape=stencil(7VnJUhwxDP2auapsy4t0Tsh/UBUSpkKAArL9fdSZuGnLPY9wTBW3mbZeW8uTLLkP/O7x+vL+6pDC49PD3ZerH8ePT9cHfn9I6Xh7ffVwfLJfB7448LtPdw9Xnx/uvt1+PP2/v1wkl19f774vb/h5wjExL6AUfp0eZIrtz4MPJ/Gb4+1GPFHLg/iK3xWPVMIgnijl8+KB8vj2SLUg8WVpEM+CxENz4gmYauLBiQeoe4iDeCCJSDwGJ14UmtqcOEPx4pX566oz4k2d+F/tzkQ1JicewNstKtWLw7dPyiC/J4re1AiUSd1vG89UyHdPMcQZpjKamjqjd8UztZEEmQogcKUmg3gjAaYqySgeE8ztmD2FY6OCAEph3MEcIMCAxeDR+xyoAh5z9NFlsxkUHJZOxdWlpSu5H4JCsQyAkiA9l+XR6CLEgEK2nMcoVyYFbl2WHUA6DfcBQmU0uiWqAGDL2TGpkAK32rLLgyZUgQ227AqWBFKQCjJVOEkkIA4SSUdqSCYGRgt7L0mBx4stp5GtUkkRoBE7G9bY7wO0O7ED1Iod4JKa0WPg7IkAlTT7c0YZHjRaKY9e0kIMEkiNm2MctMGip9qJsAIUNxFhOooNgU76ZQvxgIp1EvWAhndokxGC/KpUJgCqAotT3NET8MFpiDAZoTh0s9UKmpYl1jxZjVSSXoe2gUAEl87ODaBgleqkEirHiw3FAxKgnwF0sgG1GMvypBLMatN4UimgrNZ+Lm8BmH1tAqBe4JkIWy/hHXQKXH51VsPSpP2M2iYpitxKzi1dcSDqZDWq+EvkRqv/IUnjFAlFVkvXYAtAtUx2Yi0YUKcd2gs59zpA633tCpDea+4DypQRFQN4IlOmhOIQfJOl1hSBOMhcygJknzULroALTlLrX6LrN1ovbvuANPUbFY4n1mS5CcL2RA17m0qZdVGourbm22nr0wpqRbNPOdsTTWQt9nZkBVQqwEvV2hG3A8NpuCbvpaqwsyyta7wCch8E9wHBV9cisM5k9j2TjSFoNGObFUeVbNBBXLJp0Y9meKyxUc+NNTasoXPUhkkXaRsHM3Crjat5JF+UTsd9elMcbbY3NOTV3jqvXIUn1lof1hi8cKmiozZM8e3u67T6dvf1H9x98RymBnTP/qiI8DKr+IuaBOtT8TdrDPlefIfC8Lqi+DmcSbD4qHvu6XVOd3/Nl0BqF9835H6AnXOkOnF0HOZ+Z/gsjq6K1pdtxGFJTZM4IDD73hZfgPJ8X4pIwL5gZ2KozKs+hbwobj+ev7p8Ot7cnD7abNf9Vxp7dPrCwxe/AQ==);lineShape=1;fontSize=16;" vertex="1" parent="1">
                    <mxGeometry x="369.260128391292" y="182.99131895702328" width="178.38534763134749" height="264.0518966609137" as="geometry"/>
                </mxCell>
                <mxCell id="53" value="" style="shape=stencil(lVjbUhsxDP2avGpky9dnSv+DGULJlBIm0NvfV27GS6yNz8LbZnO0tqSjI9k7uXl9vHvZ7zy/vp2O3/e/D/dvjzv5svP+8Py4Px3e9Gkntzu5eTie9t9Ox5/P9+ffL3cN2Z5+HH+1L/w52zFJbEae/55flEqh/n/z9Yx/Ojxf4D1FN+IDZZnjE3Ed8DlQKnO8rp4GfIrEbo53QrUMBlEoggWcrjB6EDwJWMFHSqML4ol5bqB/Jz8YeCEXgEGlnAcDFykDH0KiIqMBwyxoTGQMa6UEfI6V3EgL56hmkObQPVwMEjnAo1Qs8ZSKMc4NsqNSbVShQaAy+uwDVWSQKZgtRfLAh1w7lS9WyMCgOIqy8iEBA+lBXAxcL8DrBmHFjEIBUKkkiiNZnRYoIGvRxLGlBgMfKhOP7C7kwQJVEz0ukKACVOmCtRQ0Mfp+tNz23aPr+Ew8ZlmJCkqh1q4/73gkF4rPzuCRHim+mFKD6qL4akjXFXCKN3rXX1wXVF78WySYMna4joTIJKglVFv5pZN8GtAxAbqgh/hkxI57nU4z7FcGIERqIMUaOBwin40LDufM6ESmjF02cp06yaf4MUShN5QP7sdTxhz1JkAkOKBhpBx37Z5mTAyeNyiRDd7h7xe7n7JRY0ZEYWtal4yKHojn1Zp0mNJmjEpbNVbHEiibNTzi8QDSatgEiLcWiMkapI0i/pxB7hH8oKzo8DDqujZK1FmrrHakYxvqNNopTdVEEuSCstiskKHSabMPZpTFzUnHiWSGLulj2GxgqaMSNekCpaAjkZFG4d4Qp0OXMfAwcW2sMw1Qp1uQhzY4BmuQgNNtNF0ZCNqSWxmoDyAPOl57I8CL5MwGeDPlqGKg0bQdEQw1HGRrXMi8kK8SA/K1U47Z0sLf2TnKDL9tgAdh1SAaldE3qJG3ycbMmo4CcFpdjGPiooNHBLc6SCXpR+jJgTmNeCUXciHZ8tEKRK3T24KuAXYGthcEFcsk205+0bsmBub8UZfj8wTvVxvywGFeyXzpdxITPJsA5S286YQJnjJXnVwbCyob7qelBS+U8X5GAlUPewLbGx1tQ2gWWfWciqdr7tm5uJEqML+fu8HaxuvD+3XZw+Hp6Xzbdvm/vV7TV+erObn9Bw==);lineShape=1;fontSize=16;" vertex="1" parent="1">
                    <mxGeometry x="227.21271080277893" y="432.5945743259779" width="329.52754940075465" height="26.679743042599966" as="geometry"/>
                </mxCell>
                <mxCell id="54" value="" style="shape=stencil(lVdbctswDDyNfjEkwRe+0/QemYlTa+raGcfp4/YFq2FsQCbU/NkSlsRjF4AmfHjbP73upuDeLufT992v+fmyn/DLFMJ83O/O84V/Tfg44cPL6bz7dj69H5+X/69PzbL9+nH62U74veAclNRAwf1ZHpQC5P89+brYH+bjjT0CFWGfE1Qa2xO4KOxTgmCc75O+IEaoeQwIESgLAEZIyYgg9dcdwEekMAbEAkHewE5iHQMSQXACUPsJd+2LgyyThIBxbF8RnDzf9Qf3a4DgtX00akBcNJVSu8YEqGoG2fKHIMsKZAj2+TWrfJZi2lOVBfNQbYeIdIWdUYEG8BJQwdsulSBJ56AaLGVAlDkNAapdNC+T1KpmxVD761uAoQMGJNQuFUMHDAhlFbRVhwqOVmndAKg6xN4/hgAZA1Oj2EF7yVXmnlWGCijLwNy2q5ClQ9yM7JyS9GdTm0FrM9i8S9L/1B0calP2lgJ1Q5vSf/8xgu4PBOd0t/PYW/7/XlG6NobilLRrDdUOWiWJlbCR1bASZ7ZpRCtxknXDpwGotcZBW3OzTZ2sAcEQJ4+1gqugDS3w3EQFYHUYZOLJHGVX5eFuUYNfq3Unpn7n/e3iY1u52V+yoU+fASVbc+7TcbAgJXkBL2DeKEOEomYhL2xGA/N9t+n2bVpbAXQiX/VpbxdOD9umP6MGTk/CqzgG9lGdXzrVB/aq4VEGZwTswCt/sLeDgb2aIORNGazaV619tI/spZArk9aM1yt7XvfMeBVBq9vIpyYomQT97BfFtj3/uH6+vMyHw/L1c/tef+7wo+VTCR//Ag==);lineShape=1;fontSize=16;" vertex="1" parent="1">
                    <mxGeometry x="298.1467715453871" y="291.51264316511083" width="125.99822855096409" height="12.533883987230638" as="geometry"/>
                </mxCell>
                <mxCell id="55" value="" style="shape=stencil(nVjLbttADPwaX4l97/Kcpv8RIE5jNI0DJ339fakadEQqO0Z7k2WOuCSHQ0q7fPP6ePey36Xw+nY6ft3/PNy/Pe7yp11Kh+fH/enwJle7fLvLNw/H0/7L6fj9+f78++VusVyuvh1/LE/4dcYFqmEBpfD7fGNk4vj3zuez/dPheWWfqRdj3zsNntsztWjsW6OU5/axqHsF1EZ1zAEpUmMDKJVKBQCmbj3krI/4OORBxeYoJUplDiidSjaAmCgAD7US26xWmKSWfcyRIjhQDxSGsZcbAdhXCtU9H52/Dxo2Q0KiNLcfUjP7fMkYeP4oFN15AnEHgEalW0BWIn4MGNRshmKlCELgQKN4AAPacfI1jkJscCQuGuIKgFqTG3X2gA5oxENpvAIkkFZmGsnWWbIEiCSA1iygqYDMAK5wucP2F0AaGwAKmpXKqyNVpGCD2HZzLjQaBPgsJXykQd0GLRo1rgBsDNJAAZFPjuQ8FCo4rWGjeRlliSk6DxFqjACypYaIEtJtAdQNYKB+YD+rJIaAelqybrm06BjOkmvRdBGej6dbCJu8CoHxmdh1UNQ70yBcBxWdX9M0Obo27alpIWxepeWueMgbQMOldnovAEimoXVaCRMUV2kI5yErH6ct5zwE6rjlHEB6FBZuaM9fALIFXBEmG4PQFfL7PwDJSV/SvE1HkMtS1Dk5HXLVA2DQSTeLVR2gVl5EYgVA9F5WAVcH1n1utmzkbaUBW2WdCU6YKlwoZV/y0hc10bOFrLuFSUoJyLdsfJt1piBA8GM0YpmRnbVn76ECD7L3O6mMsk0AcZW1u9pKixojD7LYu5efZTsBHtJm/ymDMpAZKZMjXxPygSzFzebdI1yN2a8OwhU0p7MyU+05UwHUC36Be595E/tqM7QaeROAa573OT+xT+5Al9V9Yu9GCcuwAiWT09qEctWiz+xtwCJpOF7HalG0ABMaLINE0NCLidjb/IieIUEN+uZ4sW9a8ln+nX3V6T6rrzsP1ol//SBx3V4u3r9+PByens4fT9b/+68lcuv8pSXf/gE=);lineShape=1;fontSize=16;" vertex="1" parent="1">
                    <mxGeometry x="254.3530582150911" y="358.9563811805169" width="244.841745050574" height="17.455495050757236" as="geometry"/>
                </mxCell>
                <mxCell id="79" value="Values" style="text;html=1;strokeColor=none;fillColor=none;align=center;verticalAlign=middle;whiteSpace=wrap;rounded=0;fontSize=16;fontStyle=1" vertex="1" parent="1">
                    <mxGeometry x="311.15" y="390" width="100" height="30" as="geometry"/>
                </mxCell>
                <mxCell id="80" value="Practices" style="text;html=1;strokeColor=none;fillColor=none;align=center;verticalAlign=middle;whiteSpace=wrap;rounded=0;fontSize=16;fontStyle=1" vertex="1" parent="1">
                    <mxGeometry x="311.15" y="250" width="100" height="30" as="geometry"/>
                </mxCell>
                <mxCell id="81" value="Principles" style="text;html=1;strokeColor=none;fillColor=none;align=center;verticalAlign=middle;whiteSpace=wrap;rounded=0;fontSize=16;fontStyle=1" vertex="1" parent="1">
                    <mxGeometry x="311.15" y="320" width="100" height="30" as="geometry"/>
                </mxCell>
            </root>
        </mxGraphModel>
    </diagram>
</mxfile>
